<svg width="22" height="10" viewBox="0 0 66 31" fill="none" xmlns="http://www.w3.org/2000/svg">
<path d="M61.8477 1.53322C61.8477 1.31421 61.8898 1.11162 61.974 0.92546C62.0582 0.737474 62.1717 0.576864 62.3164 0.43998C62.4592 0.303097 62.6277 0.195415 62.8181 0.11876C63.0085 0.0402805 63.2136 0.00195312 63.4296 0.00195312C63.6457 0.00195312 63.8471 0.0402805 64.0394 0.11876C64.2316 0.19724 64.4001 0.303097 64.5447 0.438155C64.6875 0.573213 64.8029 0.733823 64.8871 0.91816C64.9713 1.1025 65.0135 1.30326 65.0135 1.51862C65.0135 1.73398 64.9713 1.94022 64.8871 2.12638C64.8029 2.31437 64.6894 2.47498 64.5447 2.61186C64.4019 2.74875 64.2335 2.8546 64.0394 2.93308C63.8471 3.00974 63.6439 3.04989 63.4296 3.04989C63.2154 3.04989 63.0085 3.01156 62.8181 2.93308C62.6258 2.8546 62.4592 2.74875 62.3164 2.61369C62.1736 2.47863 62.0601 2.31802 61.974 2.13368C61.8898 1.94935 61.8477 1.74859 61.8477 1.53322ZM62.1003 1.53322C62.1003 1.71573 62.1351 1.88729 62.2047 2.04425C62.2725 2.20121 62.3677 2.3381 62.4885 2.45308C62.6094 2.56989 62.7503 2.66114 62.9096 2.72867C63.0708 2.7962 63.2447 2.82905 63.4296 2.82905C63.6146 2.82905 63.7885 2.7962 63.9496 2.72867C64.1089 2.66114 64.2499 2.56989 64.3708 2.45125C64.4916 2.33262 64.5868 2.19391 64.6546 2.03513C64.7242 1.87634 64.7589 1.70296 64.7589 1.5168C64.7589 1.33064 64.7242 1.16272 64.6546 1.00394C64.585 0.845155 64.4916 0.708272 64.3708 0.591465C64.2499 0.474657 64.1089 0.383402 63.9496 0.317698C63.7885 0.251994 63.6164 0.219142 63.4296 0.219142C63.2429 0.219142 63.0708 0.253819 62.9096 0.319523C62.7503 0.387052 62.6094 0.478308 62.4885 0.59329C62.3677 0.710097 62.2725 0.84698 62.2047 1.00759C62.1351 1.16638 62.1003 1.34159 62.1003 1.52957M62.8437 0.648043H63.5102C63.7299 0.648043 63.8911 0.688195 63.9954 0.7685C64.0998 0.848805 64.1511 0.978388 64.1511 1.15542C64.1511 1.31421 64.1053 1.42919 64.0119 1.50402C63.9185 1.57885 63.805 1.62083 63.6695 1.63543L64.1932 2.41293H63.9185L63.4205 1.65551H63.0946V2.41293H62.8419V0.651693L62.8437 0.648043ZM63.0964 1.43467H63.4095C63.4699 1.43467 63.5322 1.43284 63.5908 1.42919C63.6494 1.42372 63.7025 1.41277 63.7482 1.39451C63.7958 1.37626 63.8325 1.34706 63.8581 1.30873C63.8837 1.27041 63.8984 1.21565 63.8984 1.14447C63.8984 1.08424 63.8874 1.03497 63.8636 0.998465C63.8398 0.961962 63.8087 0.932761 63.7684 0.914509C63.7299 0.896258 63.6842 0.883483 63.6365 0.878007C63.5871 0.872532 63.5377 0.870707 63.4901 0.870707H63.0982V1.43649L63.0964 1.43467Z" fill="white"/>
<path d="M24.1106 24.6402C23.3653 24.6822 22.6036 24.5216 21.9427 24.1566C19.9908 23.0779 18.8409 20.4899 18.4766 18.3655C18.0335 15.7884 18.2037 11.8224 20.8349 10.3934C21.4556 10.0557 22.1624 9.90608 22.8673 9.90608C26.1265 9.90608 28.4043 13.1 28.4043 17.6719C28.4043 19.4368 28.0161 21.9098 26.7399 23.3918C26.0716 24.1675 25.1048 24.5855 24.1106 24.6402ZM23.477 7.8291C17.2443 7.8291 14.4062 12.7076 14.4062 17.2412C14.4062 21.7748 17.1784 26.6533 23.2665 26.6533C28.6075 26.6533 32.3373 22.6162 32.3373 16.8379C32.3373 11.3662 28.8584 7.8291 23.477 7.8291Z" fill="white"/>
<path d="M7.85871 30.3151C8.00336 29.012 8.00336 21.2388 8.00336 18.4135V4.87849C8.00336 4.87849 1.24146 4.94419 0.406523 4.94419C-0.139116 4.94419 -0.139116 2.08789 0.428495 2.08789C0.556666 2.08789 3.02852 2.17185 4.87783 2.17185H19.3574C20.7673 2.17185 23.8177 2.08789 23.9184 2.08789C24.486 2.08789 24.5025 4.86754 23.9404 4.86754C23.2812 4.86754 20.2747 4.84381 18.1526 4.83469L11.5463 4.87849V18.4135C11.5463 21.2388 11.5811 29.012 11.7276 30.3516C11.8356 31.2203 7.74701 31.2203 7.85504 30.3151" fill="white"/>
<path d="M59.6155 25.51C58.3337 26.4226 56.598 26.5284 55.406 26.5284C54.6003 26.5284 53.7855 26.3915 53.0074 26.1908C51.5975 25.8258 50.638 25.3019 50.2755 23.7944C50.1913 23.4458 50.1089 22.9786 50.3103 22.6519C50.4073 22.4931 50.5721 22.3982 50.7497 22.3982C51.0061 22.3982 51.1709 22.5041 51.4693 22.6939C51.6396 22.8034 51.8721 22.953 52.231 23.1593C53.3131 23.7816 54.3257 24.2981 55.7575 24.2981C57.519 24.2981 58.6121 23.4239 58.6121 22.0149C58.6121 21.1717 58.5791 19.9452 56.6108 18.7863C54.4905 17.5416 51.5535 16.222 51.213 13.4716C51.1855 13.2489 51.1745 13.0244 51.1745 12.7999C51.1745 9.88887 53.8734 7.77539 57.5904 7.77539C59.1321 7.77539 59.7876 8.01266 60.4797 8.3211C61.2011 8.64232 61.9738 9.15883 61.9481 10.0294C61.9353 10.4747 61.776 11.5954 61.1608 11.5954H61.0674L60.9649 11.5534C60.7946 11.4767 60.6115 11.3526 60.3808 11.1975C60.26 11.1153 60.1263 11.0241 59.978 10.9292L59.8315 10.8343C58.4033 9.9199 55.0526 9.4618 54.723 11.8071C54.6058 12.6375 54.6882 13.7052 56.6968 14.8203L57.6654 15.3569C60.6518 16.9995 62.1734 18.4414 62.1734 20.887C62.1734 22.8198 61.3604 24.289 59.6191 25.51" fill="white"/>
<path d="M54.1614 30.9351C53.1122 31.0757 52.129 30.9443 51.8122 30.9114C48.8332 30.6011 46.8776 28.672 44.9295 26.6206C43.1534 24.7498 41.4011 22.8572 39.6507 20.9627C39.1362 20.4061 38.6235 19.8494 38.1108 19.2909C38.1108 19.2909 38.1108 22.4009 38.1108 25.3448C38.1364 28.1007 38.1822 29.5937 38.2628 30.3584C38.369 31.2199 34.7784 31.2199 34.8846 30.3219C34.9523 29.716 34.9871 29.0534 35.0054 26.8633C35.0054 21.9337 35.0091 16.1006 35.0091 12.9414C34.9834 10.5103 34.9377 9.27653 34.8626 8.55743C34.7582 7.6978 38.3232 7.6978 38.2188 8.59393C38.1529 9.1944 38.1181 9.71273 38.0998 11.8591C38.0998 13.5893 38.1108 17.6684 38.1108 17.6684C42.4063 13.4104 46.7 9.15242 50.9974 4.89808C51.966 3.9399 52.9291 2.97806 53.9105 2.03448C54.7491 1.22595 55.7049 0.154613 56.9445 0.0213798C57.7684 -0.0662256 59.2149 0.0834336 58.1182 1.07629C57.7648 1.39569 53.7439 5.00576 49.6663 9.08854C45.5776 13.1823 41.4304 17.745 40.9397 18.3035C40.5753 18.7197 47.1468 25.0199 47.7913 25.6733C49.6956 27.6061 51.219 28.9804 54.3207 29.8729C54.5807 29.9478 55.3003 30.123 55.2105 30.5208C55.1373 30.8512 54.4086 30.9041 54.1632 30.937" fill="white"/>
</svg>
